<svg width="24" height="24" viewBox="0 0 24 24" fill="none" xmlns="http://www.w3.org/2000/svg">
<path d="M7.37613 9.563L5.31813 11.621C4.47415 12.465 4 13.6097 4 14.8032C4 15.9968 4.47415 17.1415 5.31813 17.9855C6.16212 18.8295 7.30681 19.3036 8.50038 19.3036C9.69396 19.3036 10.8386 18.8295 11.6826 17.9855L14.4246 15.242C14.9336 14.733 15.313 14.1093 15.531 13.4233C15.7491 12.7373 15.7993 12.009 15.6777 11.2996C15.556 10.5902 15.2659 9.92025 14.8318 9.34611C14.3976 8.77197 13.8321 8.31035 13.1826 8L12.3036 8.879C12.2144 8.9684 12.1368 9.06869 12.0726 9.1775C12.5744 9.32175 13.0299 9.59447 13.394 9.96869C13.7581 10.3429 14.0182 10.8057 14.1486 11.3112C14.2791 11.8168 14.2753 12.3476 14.1377 12.8513C14.0001 13.3549 13.7335 13.814 13.3641 14.183L10.6236 16.925C10.0607 17.4879 9.29722 17.8042 8.50113 17.8042C7.70504 17.8042 6.94155 17.4879 6.37863 16.925C5.81571 16.3621 5.49946 15.5986 5.49946 14.8025C5.49946 14.0064 5.81571 13.2429 6.37863 12.68L7.56813 11.492C7.4003 10.8631 7.33546 10.2111 7.37613 9.5615V9.563Z" fill="black"/>
<path d="M10.3178 7.06013C9.80885 7.56915 9.42944 8.19282 9.21141 8.87881C8.99338 9.5648 8.94308 10.2931 9.06475 11.0025C9.18642 11.712 9.4765 12.3819 9.91065 12.956C10.3448 13.5302 10.9103 13.9918 11.5598 14.3021L12.7223 13.1381C12.2137 13.0017 11.75 12.7338 11.3777 12.3614C11.0055 11.989 10.7378 11.5252 10.6016 11.0166C10.4654 10.5079 10.4655 9.9724 10.6018 9.4638C10.7381 8.9552 11.0059 8.49144 11.3783 8.11913L14.1188 5.37713C14.6817 4.81421 15.4452 4.49796 16.2413 4.49796C17.0374 4.49796 17.8009 4.81421 18.3638 5.37713C18.9267 5.94005 19.243 6.70354 19.243 7.49963C19.243 8.29572 18.9267 9.05921 18.3638 9.62213L17.1743 10.8101C17.3423 11.4401 17.4068 12.0926 17.3663 12.7406L19.4243 10.6826C20.2683 9.83865 20.7424 8.69396 20.7424 7.50038C20.7424 6.30681 20.2683 5.16212 19.4243 4.31813C18.5803 3.47415 17.4356 3 16.242 3C15.0485 3 13.9038 3.47415 13.0598 4.31813L10.3178 7.06013Z" fill="black"/>
</svg>
