<svg width="24" height="24" viewBox="0 0 24 24" fill="none" xmlns="http://www.w3.org/2000/svg">
<path fill-rule="evenodd" clip-rule="evenodd" d="M6 12.2509C6 12.052 6.07902 11.8613 6.21967 11.7206C6.36032 11.58 6.55109 11.5009 6.75 11.5009H15.4395L12.219 8.28195C12.0782 8.14112 11.9991 7.95011 11.9991 7.75095C11.9991 7.55178 12.0782 7.36078 12.219 7.21995C12.3598 7.07912 12.5508 7 12.75 7C12.9492 7 13.1402 7.07912 13.281 7.21995L17.781 11.7199C17.8508 11.7896 17.9063 11.8724 17.9441 11.9635C17.9819 12.0546 18.0013 12.1523 18.0013 12.2509C18.0013 12.3496 17.9819 12.4473 17.9441 12.5384C17.9063 12.6295 17.8508 12.7123 17.781 12.7819L13.281 17.2819C13.1402 17.4228 12.9492 17.5019 12.75 17.5019C12.5508 17.5019 12.3598 17.4228 12.219 17.2819C12.0782 17.1411 11.9991 16.9501 11.9991 16.7509C11.9991 16.5518 12.0782 16.3608 12.219 16.2199L15.4395 13.0009H6.75C6.55109 13.0009 6.36032 12.9219 6.21967 12.7813C6.07902 12.6406 6 12.4499 6 12.2509Z" fill="#012A5D"/>
</svg>
